<mxfile host="app.diagrams.net" modified="2023-09-14T15:36:12.471Z" agent="Mozilla/5.0 (Macintosh; Intel Mac OS X 10_15_7) AppleWebKit/537.36 (KHTML, like Gecko) Chrome/116.0.0.0 Safari/537.36" etag="ddeJX1ijjeKFpa0-Qzcb" version="21.7.5" type="device">
  <diagram id="aEX5CUE7W6wMbNCxImyk" name="Page-1">
    <mxGraphModel dx="1026" dy="648" grid="1" gridSize="10" guides="1" tooltips="1" connect="1" arrows="1" fold="1" page="1" pageScale="1" pageWidth="2339" pageHeight="3300" math="0" shadow="0">
      <root>
        <mxCell id="0" />
        <mxCell id="1" parent="0" />
        <mxCell id="XNhTdEKCPrdgQCeogUH7-43" style="edgeStyle=orthogonalEdgeStyle;rounded=0;orthogonalLoop=1;jettySize=auto;html=1;exitX=0.5;exitY=1;exitDx=0;exitDy=0;entryX=0.5;entryY=0;entryDx=0;entryDy=0;" edge="1" parent="1" source="XNhTdEKCPrdgQCeogUH7-1" target="XNhTdEKCPrdgQCeogUH7-2">
          <mxGeometry relative="1" as="geometry" />
        </mxCell>
        <mxCell id="XNhTdEKCPrdgQCeogUH7-1" value="RHoMIS Public Dataset&lt;br style=&quot;font-size: 13px;&quot;&gt;(n = 55,813)" style="rounded=0;whiteSpace=wrap;html=1;fontSize=13;" vertex="1" parent="1">
          <mxGeometry x="680" y="420" width="120" height="60" as="geometry" />
        </mxCell>
        <mxCell id="XNhTdEKCPrdgQCeogUH7-14" style="edgeStyle=orthogonalEdgeStyle;rounded=0;orthogonalLoop=1;jettySize=auto;html=1;exitX=0.5;exitY=1;exitDx=0;exitDy=0;entryX=0.5;entryY=0;entryDx=0;entryDy=0;" edge="1" parent="1" source="XNhTdEKCPrdgQCeogUH7-2" target="XNhTdEKCPrdgQCeogUH7-5">
          <mxGeometry relative="1" as="geometry" />
        </mxCell>
        <mxCell id="XNhTdEKCPrdgQCeogUH7-37" value="" style="edgeStyle=orthogonalEdgeStyle;rounded=0;orthogonalLoop=1;jettySize=auto;html=1;" edge="1" parent="1" source="XNhTdEKCPrdgQCeogUH7-2" target="XNhTdEKCPrdgQCeogUH7-3">
          <mxGeometry relative="1" as="geometry" />
        </mxCell>
        <mxCell id="XNhTdEKCPrdgQCeogUH7-2" value="Metadata screened for eligible projects&lt;br style=&quot;font-size: 13px;&quot;&gt;(n = 55,813)&amp;nbsp;" style="rounded=0;whiteSpace=wrap;html=1;fontSize=13;" vertex="1" parent="1">
          <mxGeometry x="680" y="500" width="120" height="60" as="geometry" />
        </mxCell>
        <mxCell id="XNhTdEKCPrdgQCeogUH7-3" value="Non-random or endline projects removed&amp;nbsp;&lt;br style=&quot;font-size: 13px;&quot;&gt;(n = 16,166)" style="rounded=0;whiteSpace=wrap;html=1;fontSize=13;" vertex="1" parent="1">
          <mxGeometry x="860" y="500" width="120" height="60" as="geometry" />
        </mxCell>
        <mxCell id="XNhTdEKCPrdgQCeogUH7-16" style="edgeStyle=orthogonalEdgeStyle;rounded=0;orthogonalLoop=1;jettySize=auto;html=1;exitX=0.5;exitY=1;exitDx=0;exitDy=0;entryX=0.5;entryY=0;entryDx=0;entryDy=0;" edge="1" parent="1" source="XNhTdEKCPrdgQCeogUH7-5" target="XNhTdEKCPrdgQCeogUH7-15">
          <mxGeometry relative="1" as="geometry" />
        </mxCell>
        <mxCell id="XNhTdEKCPrdgQCeogUH7-38" value="" style="edgeStyle=orthogonalEdgeStyle;rounded=0;orthogonalLoop=1;jettySize=auto;html=1;" edge="1" parent="1" source="XNhTdEKCPrdgQCeogUH7-5" target="XNhTdEKCPrdgQCeogUH7-7">
          <mxGeometry relative="1" as="geometry" />
        </mxCell>
        <mxCell id="XNhTdEKCPrdgQCeogUH7-5" value="Screened for participation in projects&amp;nbsp;&lt;br style=&quot;font-size: 13px;&quot;&gt;(n = 39,647)&amp;nbsp;" style="rounded=0;whiteSpace=wrap;html=1;fontSize=13;" vertex="1" parent="1">
          <mxGeometry x="680" y="580" width="120" height="60" as="geometry" />
        </mxCell>
        <mxCell id="XNhTdEKCPrdgQCeogUH7-7" value="Beneficiary households removed&lt;br style=&quot;font-size: 13px;&quot;&gt;(n = 3,953)&amp;nbsp;" style="rounded=0;whiteSpace=wrap;html=1;fontSize=13;" vertex="1" parent="1">
          <mxGeometry x="860" y="580" width="120" height="60" as="geometry" />
        </mxCell>
        <mxCell id="XNhTdEKCPrdgQCeogUH7-19" style="edgeStyle=orthogonalEdgeStyle;rounded=0;orthogonalLoop=1;jettySize=auto;html=1;exitX=0.5;exitY=1;exitDx=0;exitDy=0;entryX=0.5;entryY=0;entryDx=0;entryDy=0;" edge="1" parent="1" source="XNhTdEKCPrdgQCeogUH7-15" target="XNhTdEKCPrdgQCeogUH7-18">
          <mxGeometry relative="1" as="geometry" />
        </mxCell>
        <mxCell id="XNhTdEKCPrdgQCeogUH7-39" value="" style="edgeStyle=orthogonalEdgeStyle;rounded=0;orthogonalLoop=1;jettySize=auto;html=1;" edge="1" parent="1" source="XNhTdEKCPrdgQCeogUH7-15" target="XNhTdEKCPrdgQCeogUH7-20">
          <mxGeometry relative="1" as="geometry" />
        </mxCell>
        <mxCell id="XNhTdEKCPrdgQCeogUH7-15" value="Location information reviewed&lt;br style=&quot;font-size: 13px;&quot;&gt;(n = 35,694)&amp;nbsp;" style="rounded=0;whiteSpace=wrap;html=1;fontSize=13;" vertex="1" parent="1">
          <mxGeometry x="680" y="660" width="120" height="60" as="geometry" />
        </mxCell>
        <mxCell id="XNhTdEKCPrdgQCeogUH7-28" value="" style="edgeStyle=orthogonalEdgeStyle;rounded=0;orthogonalLoop=1;jettySize=auto;html=1;" edge="1" parent="1" source="XNhTdEKCPrdgQCeogUH7-18" target="XNhTdEKCPrdgQCeogUH7-25">
          <mxGeometry relative="1" as="geometry" />
        </mxCell>
        <mxCell id="XNhTdEKCPrdgQCeogUH7-40" value="" style="edgeStyle=orthogonalEdgeStyle;rounded=0;orthogonalLoop=1;jettySize=auto;html=1;" edge="1" parent="1" source="XNhTdEKCPrdgQCeogUH7-18" target="XNhTdEKCPrdgQCeogUH7-22">
          <mxGeometry relative="1" as="geometry" />
        </mxCell>
        <mxCell id="XNhTdEKCPrdgQCeogUH7-18" value="Key indicators calculated&amp;nbsp;&lt;br style=&quot;font-size: 13px;&quot;&gt;(n = 23,099)&amp;nbsp;" style="rounded=0;whiteSpace=wrap;html=1;fontSize=13;" vertex="1" parent="1">
          <mxGeometry x="680" y="740" width="120" height="60" as="geometry" />
        </mxCell>
        <mxCell id="XNhTdEKCPrdgQCeogUH7-20" value="Missing location information&lt;br style=&quot;font-size: 13px;&quot;&gt;(n = 1,518)&amp;nbsp;" style="rounded=0;whiteSpace=wrap;html=1;fontSize=13;" vertex="1" parent="1">
          <mxGeometry x="860" y="660" width="120" height="60" as="geometry" />
        </mxCell>
        <mxCell id="XNhTdEKCPrdgQCeogUH7-22" value="Missing data for key indicators&lt;br style=&quot;font-size: 13px;&quot;&gt;(n = 11,077)&amp;nbsp;" style="rounded=0;whiteSpace=wrap;html=1;fontSize=13;" vertex="1" parent="1">
          <mxGeometry x="860" y="740" width="120" height="60" as="geometry" />
        </mxCell>
        <mxCell id="XNhTdEKCPrdgQCeogUH7-23" value="&lt;b&gt;&lt;font style=&quot;font-size: 20px;&quot;&gt;Projects Removed&lt;/font&gt;&lt;/b&gt;" style="text;html=1;strokeColor=none;fillColor=none;align=center;verticalAlign=middle;whiteSpace=wrap;rounded=0;" vertex="1" parent="1">
          <mxGeometry x="880" y="900" width="80" height="30" as="geometry" />
        </mxCell>
        <mxCell id="XNhTdEKCPrdgQCeogUH7-32" value="" style="edgeStyle=orthogonalEdgeStyle;rounded=0;orthogonalLoop=1;jettySize=auto;html=1;" edge="1" parent="1" source="XNhTdEKCPrdgQCeogUH7-25" target="XNhTdEKCPrdgQCeogUH7-31">
          <mxGeometry relative="1" as="geometry" />
        </mxCell>
        <mxCell id="XNhTdEKCPrdgQCeogUH7-41" value="" style="edgeStyle=orthogonalEdgeStyle;rounded=0;orthogonalLoop=1;jettySize=auto;html=1;" edge="1" parent="1" source="XNhTdEKCPrdgQCeogUH7-25" target="XNhTdEKCPrdgQCeogUH7-29">
          <mxGeometry relative="1" as="geometry" />
        </mxCell>
        <mxCell id="XNhTdEKCPrdgQCeogUH7-25" value="Indicator distributions examined&lt;br style=&quot;font-size: 13px;&quot;&gt;(n =23,099)&amp;nbsp;" style="rounded=0;whiteSpace=wrap;html=1;fontSize=13;" vertex="1" parent="1">
          <mxGeometry x="680" y="820" width="120" height="60" as="geometry" />
        </mxCell>
        <mxCell id="XNhTdEKCPrdgQCeogUH7-29" value="Outliers removed&lt;br style=&quot;font-size: 13px;&quot;&gt;(n = 3,977)&amp;nbsp;" style="rounded=0;whiteSpace=wrap;html=1;fontSize=13;" vertex="1" parent="1">
          <mxGeometry x="860" y="820" width="120" height="60" as="geometry" />
        </mxCell>
        <mxCell id="XNhTdEKCPrdgQCeogUH7-31" value="Observations Kept&lt;br style=&quot;font-size: 13px;&quot;&gt;(n = 19,122)&amp;nbsp;" style="rounded=0;whiteSpace=wrap;html=1;fontSize=13;" vertex="1" parent="1">
          <mxGeometry x="680" y="900" width="120" height="60" as="geometry" />
        </mxCell>
        <mxCell id="XNhTdEKCPrdgQCeogUH7-35" value="&lt;b&gt;&lt;font style=&quot;font-size: 20px;&quot;&gt;Projects Kept&lt;/font&gt;&lt;/b&gt;" style="text;html=1;strokeColor=none;fillColor=none;align=center;verticalAlign=middle;whiteSpace=wrap;rounded=0;" vertex="1" parent="1">
          <mxGeometry x="700" y="980" width="80" height="30" as="geometry" />
        </mxCell>
      </root>
    </mxGraphModel>
  </diagram>
</mxfile>
